<svg width="27" height="30" viewBox="0 0 27 30" fill="none" xmlns="http://www.w3.org/2000/svg">
<path d="M3.375 30C2.44688 30 1.65206 29.72 0.990565 29.16C0.329065 28.6 -0.00112213 27.9276 2.86503e-06 27.1429V12.8571C2.86503e-06 12.0714 0.330752 11.3986 0.992252 10.8386C1.65375 10.2786 2.448 9.99905 3.375 10H5.0625V7.14286C5.0625 5.16667 5.88544 3.48191 7.53131 2.08857C9.17719 0.695239 11.1668 -0.000951405 13.5 9.758e-07C15.8344 9.758e-07 17.8245 0.696668 19.4704 2.09C21.1162 3.48333 21.9386 5.16762 21.9375 7.14286V10H23.625C24.5531 10 25.3479 10.28 26.0094 10.84C26.6709 11.4 27.0011 12.0724 27 12.8571V27.1429C27 27.9286 26.6692 28.6014 26.0077 29.1614C25.3462 29.7214 24.552 30.0009 23.625 30H3.375ZM13.5 22.8571C14.4281 22.8571 15.2229 22.5771 15.8844 22.0171C16.5459 21.4571 16.8761 20.7848 16.875 20C16.875 19.2143 16.5442 18.5414 15.8827 17.9814C15.2212 17.4214 14.427 17.1419 13.5 17.1429C12.5719 17.1429 11.7771 17.4229 11.1156 17.9829C10.4541 18.5429 10.1239 19.2152 10.125 20C10.125 20.7857 10.4558 21.4586 11.1173 22.0186C11.7788 22.5786 12.573 22.8581 13.5 22.8571ZM8.4375 10H18.5625V7.14286C18.5625 5.95238 18.0703 4.94048 17.0859 4.10714C16.1016 3.27381 14.9062 2.85714 13.5 2.85714C12.0938 2.85714 10.8984 3.27381 9.91406 4.10714C8.92969 4.94048 8.4375 5.95238 8.4375 7.14286V10Z" fill="black"/>
</svg>
